<?xml version="1.0" encoding="utf-8"?>
<!-- Generator: Adobe Illustrator 19.0.0, SVG Export Plug-In . SVG Version: 6.00 Build 0)  -->
<svg version="1.1" id="Copy_2" xmlns="http://www.w3.org/2000/svg" xmlns:xlink="http://www.w3.org/1999/xlink" x="0px" y="0px"
	 viewBox="0 0 535 539" style="enable-background:new 0 0 535 539;" xml:space="preserve">
<style type="text/css">
	.st0{fill:#3372B9;}
</style>
<path id="XMLID_12_" class="st0 p1" d="M441.9,55H93c2-3.4,4.2-6.8,6.4-10c7.1-10.2,15.3-19.6,24.5-28c6.9-6.3,14.3-12,22.1-17h242.9
	c7.9,5,15.3,10.7,22.1,17c9.2,8.4,17.4,17.7,24.5,28C437.8,48.2,439.9,51.5,441.9,55z"/>
<path id="XMLID_9_" class="st0 p2" d="M497.5,152H37.5c5-16.2,12.4-31.4,21.9-45c7.1-10.2,15.3-19.6,24.5-28h367.2
	c9.2,8.4,17.4,17.8,24.5,28C485,120.6,492.5,135.7,497.5,152z"/>
<path id="XMLID_8_" class="st0 p3" d="M534.7,259H0.3c2-30.7,12.3-59.2,28.8-83h476.7C522.3,199.8,532.7,228.2,534.7,259z"/>
<path id="XMLID_7_" class="st0 p4" d="M534.7,280c-2,30.7-12.3,59.2-28.8,83H29.2c-16.5-23.8-26.9-52.3-28.8-83H534.7z"/>
<path id="XMLID_10_" class="st0 p5" d="M497.5,387c-5,16.2-12.4,31.3-21.9,45c-7.1,10.2-15.3,19.6-24.5,28H83.9
	c-9.2-8.4-17.4-17.8-24.5-28c-9.5-13.7-16.9-28.8-21.9-45H497.5z"/>
<path id="XMLID_11_" class="st0 p6" d="M441.9,484c-2,3.4-4.1,6.8-6.4,10c-12.4,17.9-28.3,33.2-46.6,45H146.1
	c-18.4-11.8-34.2-27.1-46.6-45c-2.3-3.3-4.4-6.6-6.4-10H441.9z"/>
</svg>
