<?xml version="1.0" encoding="UTF-8" standalone="no"?>
<svg
   xmlns:dc="http://purl.org/dc/elements/1.1/"
   xmlns:cc="http://creativecommons.org/ns#"
   xmlns:rdf="http://www.w3.org/1999/02/22-rdf-syntax-ns#"
   xmlns:svg="http://www.w3.org/2000/svg"
   xmlns="http://www.w3.org/2000/svg"
   xmlns:sodipodi="http://sodipodi.sourceforge.net/DTD/sodipodi-0.dtd"
   xmlns:inkscape="http://www.inkscape.org/namespaces/inkscape"
   viewBox="0 -256 1792 1792"
   id="svg3025"
   version="1.1"
   inkscape:version="0.48.3.1 r9886"
   width="100%"
   height="100%"
   sodipodi:docname="arrow_up_font_awesome.svg">
  <g
     transform="matrix(1,0,0,-1,53.152542,1262.6441)"
     id="g3027">
    <path
       d="m 1611,565 q 0,-51 -37,-90 l -75,-75 q -38,-38 -91,-38 -54,0 -90,38 L 1024,693 V -11 q 0,-52 -37.5,-84.5 Q 949,-128 896,-128 H 768 q -53,0 -90.5,32.5 Q 640,-63 640,-11 V 693 L 346,400 q -36,-38 -90,-38 -54,0 -90,38 l -75,75 q -38,38 -38,90 0,53 38,91 l 651,651 q 35,37 90,37 54,0 91,-37 l 651,-651 q 37,-39 37,-91 z"
       id="path3029"
       inkscape:connector-curvature="0"
       style="fill:#FFFFFF" />
  </g>
</svg>
