<svg id="Layer_4" data-name="Layer 4" xmlns="http://www.w3.org/2000/svg" viewBox="0 0 128 128"><defs><style>.cls-1,.cls-2,.cls-3{fill:none;stroke:#000;stroke-width:2px;}.cls-1{stroke-linecap:round;}.cls-1,.cls-2{stroke-linejoin:round;}.cls-3{stroke-miterlimit:10;}</style></defs><polygon class="cls-1" points="66.76 54.85 69.24 59.86 74.76 60.66 70.76 64.56 71.71 70.07 66.76 67.47 61.82 70.07 62.76 64.56 58.76 60.66 64.29 59.86 66.76 54.85"/><path class="cls-2" d="M21.35,82.43l-8.88,5.79L8,93a2.87,2.87,0,0,0,4.18,3.94l4.35-4.77,7.09-4.36L16,104.29l-4.19,7.79a2.87,2.87,0,0,0,5.06,2.72l2.53-4.69c0-.06,2.4-3.52,2.42-3.59l2.84,1.17c-.07.1-.57.82-.62.92l-4.19,7.79a2.87,2.87,0,0,0,5.06,2.72l4.19-7.79a3.37,3.37,0,0,0,.2-.49h0L39,91.4l7.53-1.21,2.46-2.94L55,80.81a2.87,2.87,0,0,0-4.19-3.93l-6.06,6.43-.85,1.06-6.35-.25"/><line class="cls-2" x1="18.25" y1="99.42" x2="32.42" y2="104.57"/><line class="cls-2" x1="49.1" y1="78.7" x2="53.44" y2="82.46"/><line class="cls-2" x1="9.19" y1="91.7" x2="13.44" y2="95.5"/><polygon class="cls-2" points="30.65 98.69 24.02 96.2 26.83 89.59 34.05 91.76 30.65 98.69"/><circle class="cls-3" cx="30.72" cy="72.12" r="13.93"/><circle class="cls-3" cx="29.95" cy="73.55" r="3.05"/><line class="cls-3" x1="29.75" y1="58.21" x2="29.8" y2="70.41"/><line class="cls-3" x1="32.98" y1="73.83" x2="44.29" y2="75.3"/><path class="cls-1" d="M33.85,61.85a10.73,10.73,0,0,1,5.56,4"/><path class="cls-1" d="M41,68c.09.17-.06-.08,0,.1"/><path class="cls-2" d="M106.75,43l8.48-5.18,4.32-4.31a2.69,2.69,0,1,0-3.8-3.8l-4.2,4.35-6.76,3.88,7.58-15.26,4.14-7.17a2.69,2.69,0,0,0-4.66-2.69l-2.5,4.32c0,.06-2.34,3.23-2.37,3.29l-2.62-1.18.61-.84,4.13-7.17a2.69,2.69,0,0,0-4.66-2.69l-4.13,7.17a3.13,3.13,0,0,0-.21.46h0L90.53,34.09,83.45,35l-2.39,2.68-5.85,5.86A2.69,2.69,0,1,0,79,47.35l5.85-5.85.82-1,6,.42"/><line class="cls-2" x1="110.13" y1="27.17" x2="97.02" y2="21.95"/><line class="cls-2" x1="80.67" y1="45.7" x2="76.71" y2="42.05"/><line class="cls-2" x1="118.4" y1="34.65" x2="114.52" y2="30.97"/><polygon class="cls-2" points="98.51 27.5 104.64 30.02 101.82 36.13 95.13 33.89 98.51 27.5"/><circle class="cls-3" cx="97.69" cy="52.38" r="13.05"/><circle class="cls-3" cx="98.45" cy="51.06" r="2.85"/><line class="cls-3" x1="98.2" y1="65.42" x2="98.51" y2="54"/><line class="cls-3" x1="95.62" y1="50.71" x2="85.08" y2="49.01"/><path class="cls-1" d="M94.47,61.9A10.1,10.1,0,0,1,89.38,58"/><path class="cls-1" d="M88.11,55.71c-.08-.16,0,.07,0-.1"/></svg>