<?xml version="1.0" encoding="utf-8"?>
<!-- Generator: Adobe Illustrator 19.0.0, SVG Export Plug-In . SVG Version: 6.00 Build 0)  -->
<svg version="1.1" id="Capa_1" xmlns="http://www.w3.org/2000/svg" xmlns:xlink="http://www.w3.org/1999/xlink" x="0px" y="0px"
	 viewBox="-49 141 512 512" style="enable-background:new -49 141 512 512;" xml:space="preserve">
<g>
	<g>
		<path d="M234.2,377c-0.5-1.5-1.8-2.6-3.3-2.8l-14.7-2.1l-6.6-13.3c-1.4-2.8-6-2.8-7.4,0l-6.6,13.3l-14.7,2.1
			c-1.5,0.2-2.8,1.3-3.3,2.8s-0.1,3.1,1,4.2l10.7,10.4l-2.5,14.7c-0.3,1.5,0.4,3.1,1.6,4c1.3,0.9,2.9,1,4.3,0.3l13.2-6.9l13.2,6.9
			c0.6,0.3,1.3,0.5,1.9,0.5c0.9,0,1.7-0.3,2.4-0.8c1.3-0.9,1.9-2.5,1.6-4l-2.5-14.7l10.7-10.4C234.3,380.1,234.7,378.5,234.2,377z
			 M215.2,387.2c-1,0.9-1.4,2.3-1.2,3.6l1.5,8.6l-7.7-4.1c-0.6-0.3-1.3-0.5-1.9-0.5c-0.7,0-1.3,0.2-1.9,0.5l-7.7,4.1l1.5-8.6
			c0.2-1.3-0.2-2.7-1.2-3.6l-6.2-6.1l8.6-1.3c1.3-0.2,2.5-1,3.1-2.2l3.9-7.8l3.9,7.8c0.6,1.2,1.8,2.1,3.1,2.2l8.6,1.3L215.2,387.2z"
			/>
	</g>
</g>
<g>
	<g>
		<path d="M192.5,448.5c-2.7-3.7-6.8-6.1-11.3-6.7c-4.6-0.7-9.1,0.6-12.8,3.4l-11.9,9.2l0,0l-18.1,13.5l-13-5.2
			c23.1-10.4,39.2-33.5,39.2-60.3c0-36.5-29.8-66.1-66.4-66.1S31.8,366,31.8,402.4c0,13.2,4,25.5,10.7,35.9l-26.4-0.2l0,0
			c-0.1,0-0.1,0-0.2,0c-0.5,0-1,0.1-1.5,0.3c-0.1,0-0.2,0.1-0.4,0.1c-0.1,0-0.1,0-0.2,0.1L-17,453.8l0,0l-18.1,8.7
			c-0.2,0.1-0.4,0.2-0.6,0.3c-7.2,4.8-9.7,14.2-5.7,21.9c2.1,4.1,5.7,7.1,10.1,8.5c1.7,0.5,3.4,0.8,5.1,0.8c2.8,0,5.5-0.7,8-2
			l13.2-7l21.7-11.2l12.9-0.1l-51.9,51.7l0,0l-12.8,12.7c-3,3-4.7,7-4.7,11.2s1.7,8.2,4.7,11.2c3.1,3.1,7.2,4.6,11.2,4.6
			c4.1,0,8.1-1.5,11.3-4.6L-0.1,548l16.6-12.4l8.6,8.6L8.4,561l0,0l-12.8,12.7c-3,3-4.7,7-4.7,11.2s1.7,8.2,4.7,11.2
			c3.1,3.1,7.2,4.6,11.3,4.6s8.2-1.5,11.3-4.6l12.7-12.6l20.4-20.3l0,0l9.6-9.5l0,0c0.1-0.1,0.1-0.1,0.2-0.1l49.3-54l33.1,4.7
			c0.2,0,0.5,0.1,0.7,0.1c0.6,0,1.2-0.1,1.8-0.4c0.2-0.1,0.3-0.1,0.5-0.2c0.2-0.1,0.4-0.1,0.5-0.3l30.7-20.3
			c0.1-0.1,0.2-0.2,0.3-0.3c0.1-0.1,0.3-0.1,0.4-0.2l12.1-11.4C196.8,465.2,197.6,455.5,192.5,448.5z M-22.9,483
			c-1.7,0.9-3.5,1.1-5.3,0.5s-3.2-1.8-4.1-3.4c-1.5-3-0.6-6.6,2-8.6l12.5-6l3,8.8l1.3,3.7L-22.9,483z M10.4,465.5l-14.8,7.6
			l-2.4-7.1l-1.7-5.1l19.3-9.5L10.4,465.5z M154.5,402.4c0,8.8-2.1,17-5.7,24.4l-39.9-18.1c-0.4-5.5-3.3-10.3-7.5-13.2l14-46.4
			C138,356.3,154.5,377.5,154.5,402.4z M42,402.4c0-30.9,25.2-56,56.2-56c2.4,0,4.8,0.2,7.1,0.5l-13.7,45.3c-0.2,0-0.4-0.1-0.5-0.1
			c-9.8,0-17.9,8-17.9,17.8s8,17.8,17.9,17.8c6.6,0,12.3-3.7,15.4-9l36.8,16.7c-10.3,13.8-26.7,22.8-45.2,22.8
			C67.2,458.4,42,433.3,42,402.4z M98.8,410c0,4.2-3.4,7.6-7.7,7.6s-7.7-3.4-7.7-7.6s3.4-7.6,7.7-7.6S98.8,405.8,98.8,410z
			 M-19.8,553.3c-2.3,2.2-5.9,2.2-8.1,0c-1.1-1.1-1.7-2.5-1.7-4s0.6-2.9,1.7-4l9.2-9.1l8.1,8.1L-19.8,553.3z M10.9,589
			c-2.3,2.2-5.9,2.2-8.2,0c-1.1-1.1-1.7-2.5-1.7-4s0.6-2.9,1.7-4l9.2-9.2l3.8,3.8l4.3,4.3L10.9,589z M44.1,555.9L44.1,555.9
			l-16.9,16.8l-3.8-3.8l-4.3-4.3L36,547.8l0,0l0,0c0.4-0.4,0.6-0.8,0.9-1.3c0.1-0.1,0.2-0.2,0.2-0.4c0.2-0.4,0.2-0.8,0.2-1.2
			c0-0.2,0.1-0.5,0.1-0.7c0-0.3-0.1-0.7-0.2-1c-0.1-0.3-0.1-0.6-0.2-0.9c-0.2-0.5-0.5-0.9-0.9-1.3c-0.1-0.1-0.1-0.3-0.2-0.4l0,0l0,0
			l-15.3-15.3c-0.2-0.2-0.4-0.2-0.6-0.4c-0.3-0.2-0.5-0.4-0.8-0.5s-0.6-0.2-0.9-0.3s-0.6-0.2-1-0.2c-0.3,0-0.6,0-0.9,0
			s-0.7,0.1-1,0.2c-0.3,0.1-0.6,0.3-0.9,0.4c-0.2,0.1-0.4,0.1-0.6,0.3L-3,537.4l-8.6-8.6L11.3,506l41.6,40.9L44.1,555.9z
			 M109.2,488.9c-0.1,0-0.3,0-0.4,0c-0.4,0-0.7,0-1.1,0.1c-0.3,0.1-0.6,0.1-0.8,0.2c-0.3,0.1-0.6,0.3-0.9,0.4
			c-0.3,0.2-0.5,0.4-0.8,0.6c-0.1,0.1-0.3,0.2-0.4,0.3l-44.9,49.1L18.6,499l27-26.9c2-2,2-5.2,0-7.2c-1-1-2.3-1.5-3.6-1.5l0,0
			l-21.2,0.1l0.3-15.3l29.6,0.3c12.1,12.3,28.9,20,47.5,20c4.2,0,8.2-0.4,12.2-1.2c0.4,0.3,0.8,0.6,1.2,0.8l23,9.2l1.5,7.2l1.7,8.4
			L109.2,488.9z M147.7,490.6l-3-14.9l13.8-10.3l3.6,4.8l5.4,7.2L147.7,490.6z M183.5,463.6l-8,7.5l-8.9-11.8l7.9-6.1
			c1.5-1.1,3.3-1.6,5.2-1.4c1.8,0.3,3.5,1.2,4.6,2.7C186.4,457.4,186,461.3,183.5,463.6z"/>
	</g>
</g>
<g>
	<g>
		<path d="M86.5,490.4l-20.4-20.3c-2-2-5.2-2-7.2,0l-20.4,20.3c-1,1-1.5,2.3-1.5,3.6c0,1.4,0.5,2.7,1.5,3.6l20.4,20.3
			c1,1,2.3,1.5,3.6,1.5c1.3,0,2.6-0.5,3.6-1.5l20.4-20.3c1-1,1.5-2.3,1.5-3.6C88,492.6,87.4,491.3,86.5,490.4z M62.5,507.1
			l-13.2-13.2l13.2-13.1L75.7,494L62.5,507.1z"/>
	</g>
</g>
<g>
	<g>
		<path d="M120.5,361.8l-2.5,9.9c0.7,0.2,16.6,4.3,16.6,20.5h10.2C144.8,373,128.9,363.9,120.5,361.8z"/>
	</g>
</g>
<g>
	<g>
		<rect x="134.6" y="402.4" width="10.2" height="10.2"/>
	</g>
</g>
<g>
	<g>
		<path d="M224.6,320.7c2.7,3.7,6.8,6.1,11.3,6.7c4.6,0.7,9.1-0.6,12.8-3.4l11.9-9.2l0,0l18.1-13.5l13,5.2
			c-23.1,10.4-39.2,33.5-39.2,60.3c0,36.5,29.8,66.1,66.4,66.1s66.4-29.7,66.4-66.1c0-13.2-4-25.5-10.7-35.9l26.4,0.2l0,0
			c0.1,0,0.1,0,0.2,0c0.5,0,1-0.1,1.5-0.3c0.1,0,0.2-0.1,0.4-0.1c0.1,0,0.1,0,0.2-0.1l30.8-15.2l0,0l18.1-8.7
			c0.2-0.1,0.4-0.2,0.6-0.3c7.2-4.8,9.7-14.2,5.7-21.9c-2.1-4.1-5.7-7.1-10.1-8.5c-1.7-0.5-3.4-0.8-5.1-0.8c-2.8,0-5.5,0.7-8,2
			l-13.2,7l-21.6,11.2l-12.9,0.1l51.9-51.7l0,0l12.8-12.7c3-3,4.7-7,4.7-11.2s-1.7-8.2-4.7-11.2c-3.1-3.1-7.2-4.6-11.2-4.6
			c-4.1,0-8.1,1.5-11.3,4.6l-12.5,12.5l-16.6,12.4l-8.6-8.6l16.8-16.7l0,0l12.8-12.7c3-3,4.7-7,4.7-11.2s-1.7-8.2-4.7-11.2
			c-3.1-3.1-7.2-4.6-11.3-4.6s-8.2,1.5-11.3,4.6l-12.8,12.7l-20.4,20.3l0,0l-9.6,9.5l0,0c-0.1,0.1-0.1,0.1-0.2,0.1l-49.3,54
			l-33.1-4.7c-0.2,0-0.5-0.1-0.7-0.1c-0.6,0-1.2,0.1-1.8,0.4c-0.2,0.1-0.3,0.1-0.5,0.2s-0.4,0.1-0.5,0.3l-30.7,20.3
			c-0.1,0.1-0.2,0.2-0.3,0.3c-0.1,0.1-0.3,0.1-0.4,0.2l-12.1,11.4C220.3,304,219.4,313.7,224.6,320.7z M440,286.2
			c1.7-0.9,3.5-1.1,5.3-0.5s3.2,1.8,4.1,3.4c1.5,3,0.6,6.6-2,8.6l-12.5,6l-3-8.8l-1.3-3.7L440,286.2z M406.7,303.7l14.8-7.6l2.4,7.1
			l1.7,5.1l-19.3,9.5L406.7,303.7z M262.6,366.8c0-8.8,2.1-17,5.7-24.4l39.9,18.1c0.4,5.5,3.3,10.3,7.5,13.2l-14,46.4
			C279.1,412.9,262.6,391.7,262.6,366.8z M375.1,366.8c0,30.9-25.2,56-56.2,56c-2.4,0-4.8-0.2-7.1-0.5l13.7-45.3
			c0.2,0,0.4,0.1,0.5,0.1c9.8,0,17.9-8,17.9-17.8s-8-17.8-17.9-17.8c-6.6,0-12.3,3.7-15.4,9l-36.8-16.7c10.1-14,26.5-23,45.1-23
			C349.9,310.8,375.1,335.9,375.1,366.8z M318.3,359.2c0-4.2,3.4-7.6,7.7-7.6c4.2,0,7.7,3.4,7.7,7.6s-3.4,7.6-7.7,7.6
			S318.3,363.4,318.3,359.2z M436.8,215.9c2.3-2.2,5.9-2.2,8.1,0c1.1,1.1,1.7,2.5,1.7,4s-0.6,2.9-1.7,4l-9.2,9.1l-8.1-8.1
			L436.8,215.9z M406.2,180.2c2.3-2.2,5.9-2.2,8.2,0c1.1,1.1,1.7,2.5,1.7,4s-0.6,2.9-1.7,4l-9.2,9.1l-3.8-3.8l-4.3-4.3L406.2,180.2z
			 M373,213.3L373,213.3l16.9-16.8l3.8,3.8l4.3,4.3l-16.8,16.7l0,0l0,0c-0.4,0.4-0.6,0.8-0.9,1.3c-0.1,0.1-0.2,0.2-0.2,0.4
			c-0.2,0.4-0.2,0.8-0.2,1.2c0,0.2-0.1,0.5-0.1,0.7c0,0.3,0.1,0.7,0.2,1s0.1,0.6,0.2,0.9c0.2,0.5,0.5,0.9,0.9,1.3
			c0.1,0.1,0.1,0.3,0.2,0.4l0,0l0,0l15.3,15.3c0.2,0.2,0.4,0.2,0.6,0.4c0.3,0.2,0.5,0.4,0.8,0.5s0.6,0.2,0.9,0.3
			c0.3,0.1,0.6,0.2,1,0.2c0.3,0,0.6,0,0.9,0s0.7-0.1,1-0.2s0.6-0.3,0.9-0.4c0.2-0.1,0.4-0.1,0.6-0.3l16.9-12.6l8.6,8.6l-22.9,22.8
			l-41.6-40.9L373,213.3z M307.9,280.3c0.1,0,0.3,0,0.4,0c0.4,0,0.7,0,1.1-0.1c0.3-0.1,0.6-0.1,0.8-0.2c0.3-0.1,0.6-0.3,0.9-0.4
			c0.3-0.2,0.5-0.4,0.8-0.6c0.1-0.1,0.3-0.2,0.4-0.3l44.8-49.1l41.3,40.6l-27,26.9c-2,2-2,5.2,0,7.2c1,1,2.3,1.5,3.6,1.5l0,0
			l21.2-0.1l-0.3,15.3l-29.6-0.3c-12.1-12.3-28.9-20-47.5-20c-4.2,0-8.2,0.4-12.2,1.2c-0.4-0.3-0.8-0.6-1.2-0.8l-23-9.2l-1.5-7.2
			l-1.7-8.4L307.9,280.3z M269.4,278.6l3,14.9l-13.8,10.3L255,299l-5.4-7.2L269.4,278.6z M233.6,305.6l8-7.5l8.9,11.8l-7.9,6.1
			c-1.5,1.1-3.3,1.6-5.2,1.4c-1.8-0.3-3.5-1.2-4.6-2.7C230.7,311.8,231,307.9,233.6,305.6z"/>
	</g>
</g>
<g>
	<g>
		<path d="M330.6,278.8l20.4,20.3c2,2,5.2,2,7.2,0l20.4-20.3c1-1,1.5-2.3,1.5-3.6c0-1.4-0.5-2.7-1.5-3.6l-20.4-20.3
			c-1-1-2.3-1.5-3.6-1.5s-2.6,0.5-3.6,1.5l-20.4,20.3c-1,1-1.5,2.3-1.5,3.6C329.1,276.6,329.6,277.9,330.6,278.8z M354.6,262.1
			l13.2,13.2l-13.2,13.2l-13.2-13.2L354.6,262.1z"/>
	</g>
</g>
<g>
	<g>
		<path d="M296.6,407.4l2.5-9.9c-0.7-0.2-16.6-4.3-16.6-20.5h-10.2C272.3,396.2,288.2,405.3,296.6,407.4z"/>
	</g>
</g>
<g>
	<g>
		<rect x="272.3" y="356.6" width="10.2" height="10.2"/>
	</g>
</g>
</svg>
