<svg viewBox="0 -16 512.00087 512" xmlns="http://www.w3.org/2000/svg"><path d="m59.699219 360.207031 51.488281 30.015625 63.273438-30.015625 48.019531-171.777343-10.246094-5.789063c-66.335937-37.480469-128.421875-43.972656-170.285156-17.882813-27.683594 17.265626-43.777344 46.785157-41.785157 81.007813 2.359376 40.269531 18.285157 80.25 59.535157 114.441406zm0 0" fill="#ff6c6c"/><path d="m111.1875 360.207031 63.273438 30.015625 44.785156-30.015625-32.058594-156.988281c-31-15.949219-60.5625-24.113281-85.699219-24.113281-16.839843 0-31.6875 3.664062-43.648437 11.125-18.335938 11.433593-27.6875 30.53125-26.324219 53.792969 1.898437 32.480468 17.1875 77.65625 79.671875 116.183593zm0 0" fill="#ff4949"/><path d="m449.925781 360.207031c40.929688-32.074219 57.332031-69.703125 61.535157-109.734375 3.941406-37.449218-13.902344-70.339844-45.121094-87.988281-49.175782-27.757813-121.433594-12.03125-193.265625 42.214844l-6.917969 5.214843 18.726562 150.292969 74.988282 30.015625zm0 0" fill="#ff4949"/><path d="m396.5 360.207031c62.742188-35.96875 80.011719-78.945312 83.574219-112.875 2.683593-25.558593-7.710938-46.957031-28.507813-58.714843-28.742187-16.253907-83.765625-15.152344-153.472656 34.929687l17.039062 136.660156 44.738282 30.015625zm0 0" fill="#ff193d"/><path d="m299.839844 30.019531v30.015625h-30.019532v195.109375h-30.015624v-195.109375h-30.019532v-30.015625h30.019532v-30.019531h30.015624v30.019531zm0 0" fill="#ffd400"/><path d="m269.820312 255.144531h-15.007812v-255.144531h15.007812v30.019531h30.019532v30.015625h-30.019532zm0 0" fill="#fdbf00"/><path d="m418.105469 158.1875c-6.605469-22.511719-23.710938-51.628906-69.640625-63.035156-29.113282-6.902344-59.734375 0-93.652344 21.914062-33.621094-21.613281-66.9375-29.117187-96.054688-21.914062-45.925781 11.40625-72.339843 42.625-74.140624 88.253906-3.304688 77.445312 66.335937 178.300781 141.679687 203.515625 7.503906 1.800781 15.308594 2.699219 23.113281 2.699219 1.800782 0 3.601563 0 5.402344-.300782 33.621094-1.5 69.339844-19.808593 100.558594-52.828124 51.929687-53.429688 77.742187-126.972657 62.734375-178.304688zm0 0" fill="#ff8597"/><path d="m355.367188 336.492188c-31.214844 33.019531-66.933594 51.328124-100.554688 52.828124v-272.253906c33.917969-21.914062 64.539062-28.816406 93.652344-21.914062 45.929687 11.40625 63.035156 40.523437 69.640625 63.035156 15.007812 51.332031-10.804688 124.875-62.738281 178.304688zm0 0" fill="#ff6c6c"/><path d="m389.289062 166.59375c-6.304687-21.613281-22.511718-35.71875-48.027343-42.023438-22.8125-5.703124-47.726563 1.5-77.746094 22.8125l-8.703125 6.003907-8.703125-6.003907c-16.808594-12.007812-40.824219-24.914062-64.839844-24.914062-5.101562 0-10.203125.601562-15.308593 2.101562-32.71875 7.804688-50.125 28.214844-51.328126 60.03125-2.703124 63.636719 59.132813 153.089844 120.070313 173.5 6.300781 1.503907 13.207031 2.101563 20.109375 1.503907 24.914062-1.800781 53.132812-16.8125 78.945312-43.828125 43.226563-44.722656 67.238282-108.957032 55.53125-149.183594zm0 0" fill="#ff6c6c"/><path d="m333.757812 315.777344c-25.816406 27.019531-54.03125 42.027344-78.945312 43.828125v-206.21875l8.703125-6.003907c30.019531-21.308593 54.933594-28.515624 77.746094-22.8125 25.515625 6.304688 41.722656 20.410157 48.027343 42.027344 11.707032 40.222656-12.304687 104.457032-55.53125 149.179688zm0 0" fill="#ff4949"/><path d="m59.699219 360.207031h390.226562v120.066407h-390.226562zm0 0" fill="#ffe470"/><path d="m254.8125 360.207031h195.113281v120.066407h-195.113281zm0 0" fill="#fdbf00"/><path d="m329.855469 405.230469h30.015625v30.019531h-30.015625zm0 0" fill="#ff4949"/><path d="m149.753906 405.230469h30.015625v30.019531h-30.015625zm0 0" fill="#ff6c6c"/><path d="m209.78125 420.238281 45.027344-45.023437 45.023437 45.023437-45.023437 45.027344zm0 0" fill="#ff6c6c"/><path d="m299.839844 420.242188-45.027344 45.023437v-90.050781zm0 0" fill="#ff4949"/></svg>