<?xml version="1.0" encoding="iso-8859-1"?>
<!-- Generator: Adobe Illustrator 19.0.0, SVG Export Plug-In . SVG Version: 6.00 Build 0)  -->
<svg version="1.1" xmlns="http://www.w3.org/2000/svg" xmlns:xlink="http://www.w3.org/1999/xlink" x="0px" y="0px"
	 fill="#FFFF00" viewBox="0 0 512.004 512.004" style="enable-background:new 0 0 512.004 512.004;" xml:space="preserve">
		<path d="M384.002,0H196.269v170.667h187.733V0z M358.402,145.067c0,4.71-3.814,8.533-8.533,8.533h-34.133
			c-4.719,0-8.533-3.823-8.533-8.533v-102.4c0-4.71,3.814-8.533,8.533-8.533h34.133c4.719,0,8.533,3.823,8.533,8.533V145.067z"/>
		<rect x="324.269" y="51.2" width="17.067" height="85.333"/>
		<rect x="110.936" width="68.267" height="170.667"/>
		<path d="M492.435,53.696l-51.2-51.2c-1.596-1.596-3.763-2.492-6.033-2.492h-34.133v179.2c0,4.71-3.814,8.533-8.533,8.533H102.402
			c-4.719,0-8.533-3.823-8.533-8.533V0.004H25.602c-4.719,0-8.533,3.814-8.533,8.533v494.933c0,4.71,3.814,8.533,8.533,8.533
			h68.267V264.538c0-4.719,3.814-8.533,8.533-8.533h290.133c4.719,0,8.533,3.814,8.533,8.533v247.467h85.333
			c4.719,0,8.533-3.823,8.533-8.533V59.729C494.935,57.468,494.031,55.292,492.435,53.696z"/>
		<path d="M110.936,512h273.067V273.067H110.936V512z M153.602,315.733h187.733c4.719,0,8.533,3.823,8.533,8.533
			s-3.814,8.533-8.533,8.533H153.602c-4.719,0-8.533-3.823-8.533-8.533S148.883,315.733,153.602,315.733z M153.602,375.467h187.733
			c4.719,0,8.533,3.823,8.533,8.533s-3.814,8.533-8.533,8.533H153.602c-4.719,0-8.533-3.823-8.533-8.533
			S148.883,375.467,153.602,375.467z M153.602,435.2h187.733c4.719,0,8.533,3.823,8.533,8.533s-3.814,8.533-8.533,8.533H153.602
			c-4.719,0-8.533-3.823-8.533-8.533S148.883,435.2,153.602,435.2z"/>
</svg>
