<svg enable-background="new 0 0 24 24" height="24" width="24" xmlns="http://www.w3.org/2000/svg" style=""><rect id="backgroundrect" width="100%" height="100%" x="0" y="0" fill="none" stroke="none"/><g class="currentLayer" style=""><title>Layer 1</title><path d="m2.657894730567932,0 c-0.550000011920929,0 -1,0.44999998807907104 -1,1 v22 c0,0.550000011920929 0.44999998807907104,1 1,1 s1,-0.44999998807907104 1,-1 v-10.050000190734863 c1.2400000095367432,-0.7799999713897705 4.010000228881836,-2.0199999809265137 8.029999732971191,-0.800000011920929 c6.460000038146973,1.9600000381469727 11.630000114440918,-5.659999847412109 11.84000015258789,-5.980000019073486 c0.18000000715255737,-0.25999999046325684 0.17000000178813934,-0.6000000238418579 -0.009999999776482582,-0.8600000143051147 c-0.18000000715255737,-0.25 -0.5099999904632568,-0.3700000047683716 -0.8100000023841858,-0.2800000011920929 c-0.05000000074505806,0.009999999776482582 -5.210000038146973,1.3700000047683716 -9.869999885559082,-1.8899999856948853 c-3.2699999809265137,-2.2899999618530273 -7.139999866485596,-2.299999952316284 -9.180000305175781,-2.0899999141693115 v-0.05000000074505806 c0,-0.550000011920929 -0.44999998807907104,-1 -1,-1 z" id="svg_1" class="selected" fill="#ffffff" fill-opacity="1"/></g></svg>