<svg xmlns="http://www.w3.org/2000/svg" version="1.1" style="" xml:space="preserve" width="52" height="49"><rect id="backgroundrect" width="100%" height="100%" x="0" y="0" fill="none" stroke="none" class="" style=""/>
	
<g class="currentLayer" style=""><title>Layer 1</title><path fill="none" d="M51.38987206813545,14.993637478634092 C50.6531093924811,6.884394537373884 44.91334957542679,1.0009708520760459 37.73015616324993,1.0009708520760459 c-4.785559935409723,0 -9.167307916837613,2.5752719084466524 -11.6328905204767,6.702696015010982 c-2.4432564619525907,-4.180812706249428 -6.645424608076058,-6.703666716823438 -11.354299100301732,-6.703666716823438 c-7.18222271036441,0 -12.922953229231165,5.883423685297837 -13.658745203073066,13.992666626558044 c-0.058242108747380165,0.3581889687963874 -0.2970347546116382,2.2432918885865862 0.4290502011057,5.317504528635794 c1.0464165538279273,4.43416587930053 3.463464066844198,8.467431910056597 6.988082347873143,11.661040873037933 l17.584263332646476,15.957367094969664 l17.886151596320396,-15.956396393157206 c3.5246182810289466,-3.194579664793793 5.941665794045217,-7.226874993737402 6.988082347873143,-11.66201157485039 C51.68593612093464,17.23692936722068 51.44714347507037,15.35182644743048 51.38987206813545,14.993637478634092 zM49.069894736364816,19.865589875352427 c-0.955170583457032,4.049767961567823 -3.1693414176699286,7.739405550714346 -6.396924944087236,10.663159409832822 L26.097265642773234,45.3173913979575 L9.80597712431859,30.53263209243508 c-3.2334077372920467,-2.9295780699932137 -5.446607869692486,-6.61824495732728 -6.402749154961975,-10.668012918895103 c-0.6872568832190858,-2.9091933319316317 -0.4047826557942916,-4.552591500420204 -0.40381195398183534,-4.563269220357223 l0.014560527186845026,-0.09804088305808994 C3.6449327206582423,8.098742504756757 8.57706862974887,2.9414037751762567 14.742966542471502,2.9414037751762567 c4.549679394982834,0 8.554795073177665,2.7956212198742394 10.455429221967167,7.294824120609345 l0.8940163692722825,2.1190420565921753 l0.8940163692722825,-2.1190420565921753 c1.8705423926033542,-4.430283072050705 6.087271065913667,-7.293853418796889 10.744698362079156,-7.293853418796889 c6.1649272109101725,0 11.09803382181326,5.157338729580499 11.741609123471807,12.354121967131755 C49.47467739215911,15.312027673119768 49.757151619583894,16.956396543420794 49.069894736364816,19.865589875352427 z" stroke-width="2" stroke="#4A5AE5" id="svg_1" class="" stroke-opacity="1"/><path fill="none" fill-opacity="1" stroke="#4A5AE5" stroke-opacity="1" stroke-width="2" stroke-dasharray="none" stroke-linejoin="miter" stroke-linecap="butt" stroke-dashoffset="" fill-rule="nonzero" opacity="1" marker-start="" marker-mid="" marker-end="" id="svg_2" d="M 5.793815805372567 6.070103715525043 L 12.989690721649486 2.577319587628866 C 13.010310792634137 2.668041792958878 19.402063495637236 3.492784077217341 19.402063495637236 3.492784077217341 C 19.402063495637236 3.492784077217341 23.938146059058788 7.513402712977356 23.917525773195877 7.422680412371134 C 23.938146059058788 7.513402712977356 26.103094555237256 10.915464635543522 26.103094555237256 10.915464635543522 C 26.103094555237256 10.915464635543522 29.29897090673881 5.967010929992735 29.27835051546392 5.876288659793815 C 29.29897090673881 5.967010929992735 33.11340397143422 3.5958768627496482 33.09278350515464 3.505154639175258 C 33.11340397143422 3.5958768627496482 38.78350717571116 2.255670650829643 38.76288659793815 2.1649484536082477 C 38.78350717571116 2.255670650829643 44.247424808923476 4.420619147008114 44.22680412371135 4.3298969072164954 C 44.247424808923476 4.420619147008114 48.164950659151195 9.678351209155824 48.14432989690722 9.587628865979383 C 48.164950659151195 9.678351209155824 49.6082496566035 15.245361627900465 49.6082496566035 15.245361627900465 C 49.6082496566035 15.245361627900465 48.98969294340966 21.327835974306637 48.96907216494846 21.23711340206186 C 48.98969294340966 21.327835974306637 47.64948673148965 25.451547395598965 47.64948673148965 25.451547395598965 C 47.64948673148965 25.451547395598965 26.103094555237256 46.07010450206058 26.103094555237256 46.07010450206058 C 26.103094555237256 46.07010450206058 3.6288673091940993 24.729897896872806 3.6082474226804124 24.63917525773196 C 3.6288673091940993 24.729897896872806 2.907217810467941 19.26598026366048 2.8865979381443303 19.175257731958766 C 2.907217810467941 19.26598026366048 2.288661097274094 13.802062630448146 2.2680412371134024 13.711340206185568 C 2.288661097274094 13.802062630448146 3.6288673091940993 9.884536780220444 3.6082474226804124 9.793814432989691" style="color: rgb(51, 114, 185);"/><path fill="#4A5AE5" fill-opacity="1" stroke="none" stroke-opacity="1" stroke-width="2" stroke-dasharray="none" stroke-linejoin="miter" stroke-linecap="butt" stroke-dashoffset="" fill-rule="nonzero" opacity="1" marker-start="" marker-mid="" marker-end="" id="svg_3" d="M 1.5670115985479356 14.111340987045075 L 7.422680412371134 4.020618556701031" style="color: rgb(51, 114, 185);"/><path fill="#4A5AE5" fill-opacity="1" stroke="none" stroke-opacity="1" stroke-width="2" stroke-dasharray="none" stroke-linejoin="miter" stroke-linecap="butt" stroke-dashoffset="" fill-rule="nonzero" opacity="1" marker-start="" marker-mid="" marker-end="" id="svg_4" d="M 2.4948466683387096 14.729897700238924 L 4.742268041237113 6.804123711340207 L 10.20618556701031 2.577319587628866 L 17.216494845360828 2.4742268041237114 L 21.855670103092784 4.639175257731959 L 25.670103092783506 10.515463917525773 L 29.690721649484537 5.360824742268042 L 33.608247422680414 2.8865979381443303 L 38.659793814432994 2.2680412371134024 L 42.98969072164949 3.711340206185567 L 47.52577319587629 8.144329896907218 C 47.54639394595734 8.235052211703515 50.02062079873274 14.523712129174307 49.91752801320043 14.523712129174307 C 49.81443522766812 14.523712129174307 48.783507372345035 22.152578258565107 48.76288659793815 22.061855670103096 C 48.783507372345035 22.152578258565107 45.27835266424656 29.059794889229742 45.25773195876289 28.969072164948457 C 45.27835266424656 29.059794889229742 37.75257932038807 36.173197090959 37.7319587628866 36.08247422680412 C 37.75257932038807 36.173197090959 30.74226990419113 42.15257865183287 30.721649484536083 42.06185567010309 C 30.74226990419113 42.15257865183287 25.896908984172647 46.276290073125196 25.876288659793815 46.185567010309285 C 25.896908984172647 46.276290073125196 4.969073521114105 26.997939178583586 4.948453608247423 26.90721649484536 C 4.969073521114105 26.997939178583586 2.8041250249356366 20.29690811898356 2.7835051546391756 20.206185567010312" style="color: rgb(51, 114, 185);" class="selected"/><path fill="#4A5AE5" fill-opacity="1" stroke="none" stroke-opacity="1" stroke-width="2" stroke-dasharray="none" stroke-linejoin="miter" stroke-linecap="butt" stroke-dashoffset="" fill-rule="nonzero" opacity="1" marker-start="" marker-mid="" marker-end="" id="svg_6" d="M21.77319756288032,19.369073049192785 " style="color: rgb(51, 114, 185);"/></g></svg>
