<svg xmlns="http://www.w3.org/2000/svg" version="1.1" style="" xml:space="preserve" width="52" height="49"><rect id="backgroundrect" width="100%" height="100%" x="0" y="0" fill="none" stroke="none" class="" style=""/>
	
<g class="currentLayer" style=""><title>Layer 1</title><path fill="#4A5AE5" d="M51.38987206813545,14.993637478634092 C50.6531093924811,6.884394537373884 44.91334957542679,1.0009708520760459 37.73015616324993,1.0009708520760459 c-4.785559935409723,0 -9.167307916837613,2.5752719084466524 -11.6328905204767,6.702696015010982 c-2.4432564619525907,-4.180812706249428 -6.645424608076058,-6.703666716823438 -11.354299100301732,-6.703666716823438 c-7.18222271036441,0 -12.922953229231165,5.883423685297837 -13.658745203073066,13.992666626558044 c-0.058242108747380165,0.3581889687963874 -0.2970347546116382,2.2432918885865862 0.4290502011057,5.317504528635794 c1.0464165538279273,4.43416587930053 3.463464066844198,8.467431910056597 6.988082347873143,11.661040873037933 l17.584263332646476,15.957367094969664 l17.886151596320396,-15.956396393157206 c3.5246182810289466,-3.194579664793793 5.941665794045217,-7.226874993737402 6.988082347873143,-11.66201157485039 C51.68593612093464,17.23692936722068 51.44714347507037,15.35182644743048 51.38987206813545,14.993637478634092 zM49.069894736364816,19.865589875352427 c-0.955170583457032,4.049767961567823 -3.1693414176699286,7.739405550714346 -6.396924944087236,10.663159409832822 L26.097265642773234,45.3173913979575 L9.80597712431859,30.53263209243508 c-3.2334077372920467,-2.9295780699932137 -5.446607869692486,-6.61824495732728 -6.402749154961975,-10.668012918895103 c-0.6872568832190858,-2.9091933319316317 -0.4047826557942916,-4.552591500420204 -0.40381195398183534,-4.563269220357223 l0.014560527186845026,-0.09804088305808994 C3.6449327206582423,8.098742504756757 8.57706862974887,2.9414037751762567 14.742966542471502,2.9414037751762567 c4.549679394982834,0 8.554795073177665,2.7956212198742394 10.455429221967167,7.294824120609345 l0.8940163692722825,2.1190420565921753 l0.8940163692722825,-2.1190420565921753 c1.8705423926033542,-4.430283072050705 6.087271065913667,-7.293853418796889 10.744698362079156,-7.293853418796889 c6.1649272109101725,0 11.09803382181326,5.157338729580499 11.741609123471807,12.354121967131755 C49.47467739215911,15.312027673119768 49.757151619583894,16.956396543420794 49.069894736364816,19.865589875352427 z" stroke-width="2" stroke="#4A5AE5" id="svg_1" class="selected" stroke-opacity="1"/></g></svg>
