<svg xmlns="http://www.w3.org/2000/svg" xmlns:xlink="http://www.w3.org/1999/xlink" version="1.1" style="" xml:space="preserve" width="50" height="50"><rect id="backgroundrect" width="100%" height="100%" x="0" y="0" fill="none" stroke="none"/>

<g class="currentLayer" style=""><title>Layer 1</title><path style="fill:#4A5AE5;" d="M24.912294042691922,8.584361199674822 c2.007516671672717,-5.195217525310613 6.593568136693148,-8.825244071325256 11.927713029413221,-8.825244071325256 c7.18547716525869,0 12.360453243574584,6.711530229750002 13.011055772451668,14.71018836405636 c0,0 0.3511661967792223,1.9855441430624705 -0.42179735817107655,5.560175310906336 c-1.0525037852476387,4.868276175714437 -3.5265840441426075,9.193460408578087 -6.8621655110002,12.49437323722516 L24.912294042691922,49.72248968673608 L7.55493483191612,32.52276785665172 c-3.3355814668575925,-3.299826644761369 -5.8096617257525605,-7.626097061510722 -6.8621655110002,-12.49437323722516 c-0.7729635549502976,-3.574631167843866 -0.42179735817107655,-5.560175310906336 -0.42179735817107655,-5.560175310906336 C0.9215744916219283,6.469561174213866 6.096550569937823,-0.24196905553613526 13.282027735196513,-0.24196905553613526 C18.61716743300661,-0.24196905553613526 22.904777371019204,3.3891436743642136 24.912294042691922,8.584361199674822 z" id="svg_1" class="selected"/></g></svg>