<?xml version="1.0" encoding="utf-8"?>
<!-- Generator: Adobe Illustrator 19.0.0, SVG Export Plug-In . SVG Version: 6.00 Build 0)  -->
<svg version="1.1" xmlns="http://www.w3.org/2000/svg" xmlns:xlink="http://www.w3.org/1999/xlink" x="0px" y="0px"
	 viewBox="334.7 123.5 547.2 546.5" style="enable-background:new 334.7 123.5 547.2 546.5;" xml:space="preserve">
<style type="text/css">
	.st0{display:none;}
	.st1{fill:#0074d9;}
	.st2{fill:none;stroke:#000000;stroke-width:2;}
	.st3{display:inline;fill:#ABD4F1;stroke:#ABD4F1;stroke-width:2.5;}
	.st4{display:inline;fill:#80BAE5;stroke:#80BAE5;stroke-width:2.5;}
	.st5{display:inline;fill:#5D9FD6;stroke:#5D9FD6;stroke-width:2.5;}
	.st6{display:inline;stroke:#000000;stroke-width:2.5;}
	.st7{display:inline;fill:none;stroke:#999999;stroke-width:2.5;}
	.st8{display:inline;fill:none;stroke:#AAAAAA;stroke-width:2.5;}
	.st9{display:inline;fill:none;stroke:#CCCCCC;stroke-width:2.5;}
	.st10{display:inline;fill:none;stroke:#666666;stroke-width:2.5;}
	.st11{display:inline;fill:none;stroke:#333333;stroke-width:2.5;}
	.st12{display:inline;fill:#5D9FD6;}
	.st13{display:inline;fill:none;stroke:#676789;stroke-width:2.5;}
</style>
<g id="Layer_6" class="st0">
	
		<image style="display:inline;overflow:visible;" width="2226" height="2246" id="XMLID_2_" xlink:href="D:\Misc\hobee\Design\SiteDesign\h.png"  transform="matrix(0.24 0 0 0.2433 341.13 123.6475)">
	</image>
</g>
<g id="Layer_18">
	<path class="st1" d="M880.7,395.8c3,51.6-34.5,77.4-34.5,77.4c4.5,75.7-63.6,103.6-63.6,103.6C760.4,665.5,678.4,663,678.4,663h-70
		h-0.1h-70c0,0-81.9,2.5-104.1-86.2c0,0-68.2-27.9-63.6-103.6c0,0-37.5-25.8-34.5-77.4v1.8c-3-51.6,34.5-77.4,34.5-77.4
		c-4.5-75.7,63.6-103.6,63.6-103.6c22.1-88.7,104.1-86.2,104.1-86.2h70h0.1h70c0,0,81.9-2.5,104.1,86.2c0,0,68.2,27.9,63.6,103.6
		c0,0,37.5,25.8,34.5,77.4"/>
</g>
<g id="Layer_19">
	<line class="st2" x1="434.2" y1="216.6" x2="782.5" y2="216.6"/>
	<line class="st2" x1="370.5" y1="320.2" x2="846.2" y2="320.2"/>
	<line class="st2" x1="336" y1="397.6" x2="880.7" y2="397.6"/>
	<line class="st2" x1="434.2" y1="578.6" x2="782.5" y2="578.6"/>
	<line class="st2" x1="370.5" y1="475" x2="846.2" y2="475"/>
</g>
<g id="Layer_7" class="st0">
	<circle class="st3" cx="538.2" cy="234.5" r="104.1"/>
	<circle class="st4" cx="489.2" cy="313" r="104.1"/>
	<circle class="st3" cx="538.2" cy="557.9" r="104.1"/>
	<circle class="st4" cx="475.1" cy="479.3" r="104.1"/>
	<circle class="st5" cx="440.1" cy="396.2" r="104.1"/>
	<circle class="st3" cx="678.5" cy="234.8" r="104.1"/>
	<circle class="st4" cx="741.6" cy="313.4" r="104.1"/>
	<circle class="st3" cx="678.5" cy="558.2" r="104.1"/>
	<circle class="st4" cx="741.6" cy="479.6" r="104.1"/>
	<circle class="st5" cx="776.6" cy="396.5" r="104.1"/>
</g>
<g id="Layer_17" class="st0">
</g>
<g id="Layer_13" class="st0">
</g>
<g id="Layer_11" class="st0">
	<circle class="st6" cx="609.1" cy="533.6" r="24.7"/>
</g>
<g id="Layer_14" class="st0">
</g>
<g id="Layer_12" class="st0">
	<line class="st7" x1="334.8" y1="397" x2="882" y2="397"/>
	<line class="st8" x1="389.4" y1="303.5" x2="829.5" y2="303.5"/>
	<line class="st8" x1="387.7" y1="303.5" x2="389.4" y2="303.5"/>
	<line class="st9" x1="467" y1="209" x2="750.2" y2="209"/>
	<line class="st10" x1="387.1" y1="487.7" x2="829.4" y2="487.7"/>
	<line class="st11" x1="465.9" y1="581.6" x2="750.6" y2="581.6"/>
</g>
<g id="Layer_15" class="st0">
</g>
<g id="Layer_16" class="st0">
	<rect x="424.2" y="304.7" class="st12" width="364.6" height="91"/>
</g>
<g id="Layer_3" class="st0">
	<circle class="st8" cx="608.3" cy="396.8" r="272"/>
	<circle class="st8" cx="608.3" cy="396.8" r="168.1"/>
	<circle class="st8" cx="608.3" cy="396.8" r="104.1"/>
	<circle class="st8" cx="608.3" cy="395.5" r="64.2"/>
	<circle class="st8" cx="608.3" cy="395.5" r="40"/>
	<ellipse class="st8" cx="608.4" cy="397" rx="24.7" ry="24.7"/>
</g>
<g id="Layer_9" class="st0">
</g>
<g id="Layer_5" class="st0">
	<line class="st13" x1="608.3" y1="396.8" x2="608.3" y2="124.8"/>
	<line class="st13" x1="608.3" y1="396.8" x2="608.3" y2="668.8"/>
	<line class="st13" x1="608.3" y1="396.8" x2="880.3" y2="396.8"/>
	<line class="st13" x1="336.3" y1="396.8" x2="608.3" y2="396.8"/>
	<line class="st13" x1="608.3" y1="396.8" x2="355.3" y2="292"/>
	<line class="st13" x1="608.3" y1="396.8" x2="416.4" y2="204.9"/>
	<line class="st13" x1="608.3" y1="396.8" x2="504.2" y2="145.5"/>
	<line class="st13" x1="608.3" y1="395.5" x2="355.3" y2="500.3"/>
	<line class="st13" x1="608.3" y1="395.5" x2="416.4" y2="587.3"/>
	<line class="st13" x1="608.3" y1="395.5" x2="504.2" y2="646.8"/>
</g>
<g id="Layer_8" class="st0">
</g>
<g id="Layer_10" class="st0">
</g>
</svg>
