<svg id="svg" version="1.1" width="400" height="431" xmlns="http://www.w3.org/2000/svg" xmlns:xlink="http://www.w3.org/1999/xlink" ><g id="svgg"><path id="path0" d="M115.615 1.047 C 103.827 8.135,85.558 26.020,78.074 37.800 L 75.151 42.400 200.000 42.400 L 324.849 42.400 321.926 37.800 C 314.369 25.905,295.154 7.162,284.199 1.000 C 281.678 -0.418,117.976 -0.372,115.615 1.047 M63.850 66.600 C 52.485 77.342,44.205 88.643,37.318 102.813 C 32.500 112.729,32.254 113.309,31.302 117.000 L 30.529 120.000 200.000 120.000 L 369.471 120.000 368.698 117.000 C 367.746 113.309,367.500 112.729,362.682 102.813 C 355.795 88.643,347.515 77.342,336.150 66.600 L 330.860 61.600 200.000 61.600 L 69.140 61.600 63.850 66.600 M20.266 143.802 C 18.580 146.333,15.460 152.003,13.333 156.402 C 11.206 160.801,9.182 164.952,8.835 165.626 C 8.487 166.301,7.932 168.089,7.600 169.600 C 7.268 171.111,6.709 172.899,6.357 173.574 C 5.517 175.184,4.523 177.796,4.368 178.800 C 4.301 179.240,4.039 180.140,3.788 180.800 C 2.686 183.688,0.137 198.838,0.053 203.000 L 0.000 205.600 200.000 205.600 L 400.000 205.600 399.947 203.000 C 399.863 198.838,397.314 183.688,396.212 180.800 C 395.961 180.140,395.699 179.240,395.632 178.800 C 395.477 177.796,394.483 175.184,393.643 173.574 C 393.291 172.899,392.732 171.111,392.400 169.600 C 392.068 168.089,391.513 166.301,391.165 165.626 C 390.818 164.952,388.794 160.801,386.667 156.402 C 384.540 152.003,381.420 146.333,379.734 143.802 L 376.668 139.200 200.000 139.200 L 23.332 139.200 20.266 143.802 M0.053 228.200 C 0.137 232.362,2.686 247.512,3.788 250.400 C 4.039 251.060,4.301 251.960,4.368 252.400 C 4.523 253.404,5.517 256.016,6.357 257.626 C 6.709 258.301,7.268 260.089,7.600 261.600 C 7.932 263.111,8.487 264.899,8.835 265.574 C 9.182 266.248,11.206 270.399,13.333 274.798 C 15.460 279.197,18.580 284.867,20.266 287.398 L 23.332 292.000 200.000 292.000 L 376.668 292.000 379.734 287.398 C 381.420 284.867,384.540 279.197,386.667 274.798 C 388.794 270.399,390.818 266.248,391.165 265.574 C 391.513 264.899,392.068 263.111,392.400 261.600 C 392.732 260.089,393.291 258.301,393.643 257.626 C 394.483 256.016,395.477 253.404,395.632 252.400 C 395.699 251.960,395.961 251.060,396.212 250.400 C 397.314 247.512,399.863 232.362,399.947 228.200 L 400.000 225.600 200.000 225.600 L 0.000 225.600 0.053 228.200 M31.302 314.200 C 32.254 317.891,32.500 318.471,37.318 328.387 C 44.205 342.557,52.485 353.858,63.850 364.600 L 69.140 369.600 200.000 369.600 L 330.860 369.600 336.150 364.600 C 347.515 353.858,355.795 342.557,362.682 328.387 C 367.500 318.471,367.746 317.891,368.698 314.200 L 369.471 311.200 200.000 311.200 L 30.529 311.200 31.302 314.200 M78.074 393.400 C 85.631 405.295,104.846 424.038,115.801 430.200 C 117.191 430.982,135.544 431.200,200.000 431.200 C 264.456 431.200,282.809 430.982,284.199 430.200 C 295.154 424.038,314.369 405.295,321.926 393.400 L 324.849 388.800 200.000 388.800 L 75.151 388.800 78.074 393.400 " stroke="none" fill="#0000ff" fill-rule="evenodd"></path></g></svg>
