<?xml version="1.0" encoding="utf-8"?>
<!-- Generator: Adobe Illustrator 19.0.0, SVG Export Plug-In . SVG Version: 6.00 Build 0)  -->
<svg version="1.1" id="Layer_1" xmlns="http://www.w3.org/2000/svg" xmlns:xlink="http://www.w3.org/1999/xlink" x="0px" y="0px"
	 viewBox="-9.3 152 432.7 490" style="enable-background:new -9.3 152 432.7 490;" xml:space="preserve">
<style type="text/css">
	.st0{fill:#FFFFFF;}
</style>
<path class="st0" d="M207,233.3c-74.2,0-127.8,55.3-136.3,114.7c-5.3,39.6,7.5,78.2,34.1,107.4c23.4,25,36.2,58.4,36.2,92.8
	l-0.1,54.2c0,21.9,18.1,39.6,40.5,39.6h52.2c22.4,0,40.5-17.7,40.5-39.6l0.1-54.2c0-35.4,11.7-67.8,34.1-90.7
	c24.5-25,37.3-57.3,37.3-90.7C345.5,292.7,282.6,233.3,207,233.3L207,233.3z M253.8,602.4c0,10.4-8.5,18.8-19.2,18.8h-52.2
	c-10.7,0-19.2-8.3-19.2-18.8v-24h90.5v24H253.8z M293.4,442.9c-26.6,27.1-40.5,64.6-40.5,105.3v9.4h-90.5v-9.4
	c0-38.6-16-77.1-42.6-106.3c-23.4-25-33-57.3-28.8-90.7c7.5-50,54-97,116.1-97c65,0,117.2,51.1,117.2,112.6
	C324.3,394.9,313.6,422,293.4,442.9z"/>
<rect x="-9.3" y="375.6" class="st0" width="50" height="20"/>
<ellipse class="st0" cx="207.6" cy="329.9" rx="113.4" ry="75.7"/>
<rect x="90" y="337" class="st0" width="236.5" height="86.7"/>
<rect x="102.2" y="422.7" class="st0" width="207.8" height="24.8"/>
<rect x="124.7" y="447.5" class="st0" width="167.8" height="25"/>
<rect x="141.9" y="472.5" class="st0" width="130.1" height="19"/>
<rect x="150.9" y="485" class="st0" width="114.2" height="29.8"/>
<rect x="373.3" y="372.6" class="st0" width="50" height="20"/>
<rect x="197" y="152" class="st0" width="20" height="50"/>
<rect x="31.3" y="231.7" transform="matrix(-0.7071 -0.7071 0.7071 -0.7071 -74.8174 452.4103)" class="st0" width="50" height="20"/>
<rect x="333.5" y="231.7" transform="matrix(0.7071 -0.7071 0.7071 0.7071 -65.8918 324.3314)" class="st0" width="50" height="20"/>
</svg>
