<svg xmlns="http://www.w3.org/2000/svg" enable-background="new 0 0 24 24" height="150" width="150"><rect id="backgroundrect" width="100%" height="100%" x="0" y="0" fill="none" stroke="none" class="" style=""/>
    
<g class="currentLayer" style=""><title>Layer 1</title><path fill="#FFFFFF" d="m147.9888799864376,66.5222029605027 l-52.816099882125854,-51.26268517971039 c-1.3421503028869632,-1.304868350028992 -3.3491620984077457,-1.671474219799042 -5.057918271064759,-0.9506897978782657 c-1.7211834902763368,0.7332117395401007 -2.8458557348251343,2.423326935768128 -2.8458557348251343,4.293638237476351 v26.42047725868225 c-48.112360163211825,0.8326302804946903 -86.99122333526611,40.227227133750915 -86.99122333526611,88.53221072006225 c0,2.125071312904359 1.4974917731285098,3.8648957796096814 3.554212839126588,4.3992704372406015 c0.3666058697700505,0.09320488214492806 0.7332117395401007,0.13670049381256127 1.0998176093101504,0.13670049381256127 c1.7025425138473511,0 3.361589416027069,-0.9755444331169132 4.212860672950747,-2.510318159103394 c13.949664027690888,-25.202600131988525 40.5068417801857,-40.86102033233643 69.3133640217781,-40.86102033233643 h8.810968192100527 v26.408049941062927 c0,1.870311301708222 1.124672244548798,3.5604264979362497 2.8458557348251343,4.293638237476351 c1.7025425138473511,0.7207844219207766 3.7219816269874584,0.3541785521507264 5.057918271064759,-0.9506897978782657 l52.816099882125854,-51.26268517971039 c0.9071941862106325,-0.8761258921623237 1.4167142086029056,-2.081575701236726 1.4167142086029056,-3.3429484395980835 s-0.5095200223922731,-2.4668225474357617 -1.4167142086029056,-3.3429484395980835 z" id="svg_1" class=""/></g></svg>