<svg xmlns="http://www.w3.org/2000/svg" xmlns:xlink="http://www.w3.org/1999/xlink" version="1.1" style="" xml:space="preserve" width="50" height="50"><rect id="backgroundrect" width="100%" height="100%" x="0" y="0" fill="none" stroke="none" class="" style=""/>


















<g class="currentLayer" style=""><title>Layer 1</title><g id="svg_10" class="">
</g><g id="svg_11" class="">
</g><g id="svg_12" class="">
</g><g id="svg_13" class="">
</g><g id="svg_14" class="">
</g><g id="svg_15" class="">
</g><g id="svg_16" class="">
</g><g id="svg_17" class="">
</g><g id="svg_18" class="">
</g><g id="svg_19" class="">
</g><g id="svg_20" class="">
</g><g id="svg_21" class="">
</g><g id="svg_22" class="">
</g><g id="svg_23" class="">
</g><g id="svg_24" class="">
</g><g class="selected" stroke="#cc0000" stroke-opacity="1" fill="#cc0000" fill-opacity="1"><g id="svg_1" class="" stroke="#cc0000" stroke-opacity="1" fill="#cc0000" fill-opacity="1">
	<g id="svg_2" stroke="#cc0000" stroke-opacity="1" fill="#cc0000" fill-opacity="1">
		<path d="M48.71970947646358,39.14070344044548 L28.73029582060969,5.989804638343383 c-0.787530396014243,-1.305983147656687 -2.2241023403027333,-2.1173088783341583 -3.7491929295384363,-2.1173088783341583 c-1.5250905892357032,0 -2.9616625335241937,0.8113257306774734 -3.749288110877089,2.1174040596728116 L1.2424963056789167,39.14070344044548 c-0.8138956268211027,1.3498617447756822 -0.8379765055002893,3.0410437699607265 -0.06291486484957884,4.413558673335801 c0.7752520033280161,1.3725149033750768 2.235904826295694,2.2251493350279143 3.812107794388016,2.2251493350279143 h39.97882731170781 c1.5762029680923209,0 3.0369509723986523,-0.85263443165284 3.8122029757266676,-2.2252445163665673 C49.557781163302536,42.18155684772888 49.53370028462335,40.49037482254384 48.71970947646358,39.14070344044548 zM46.01998598691223,41.99404961058265 c-0.21339656125984222,0.37777473311343235 -0.6155377170684215,0.6125870955701813 -1.0494694399870723,0.6125870955701813 H4.99168923521735 c-0.43393172291865384,0 -0.8360728787272305,-0.23471718111809586 -1.0493742586484203,-0.6124919142315276 c-0.21339656125984222,-0.37786991445208534 -0.20673386755413822,-0.8434970231421588 0.017227822296178204,-1.2149897879044969 L23.949051636057664,7.62825620191471 c0.21682308945134746,-0.35949991609207177 0.6123015515542221,-0.5828905179104703 1.0321464363522415,-0.5828905179104703 c0.419749703459369,0 0.815228165562242,0.22339060181839887 1.0320512550135894,0.5828905179104703 l19.98931847451525,33.15089880210209 C46.22671985446635,41.15074295011778 46.23338254817206,41.61627487746921 46.01998598691223,41.99404961058265 z" id="svg_3" stroke="#cc0000" stroke-opacity="1" fill="#cc0000" fill-opacity="1"/>
	</g>
</g><g id="svg_4" class="" stroke="#cc0000" stroke-opacity="1" fill="#cc0000" fill-opacity="1">
	<g id="svg_5" stroke="#cc0000" stroke-opacity="1" fill="#cc0000" fill-opacity="1">
		<path d="M24.995855998562455,16.92642599357961 c-1.206899374118999,0 -2.1488139014282743,0.6476138281944543 -2.1488139014282743,1.7956911350259506 c0,3.502863625104685 0.41204001502848175,8.536433538425596 0.41204001502848175,12.039392344868931 c0.00009518133865291841,0.9125034936655247 0.7949545404291712,1.2951324750502544 1.736869067738446,1.2951324750502544 c0.7064358954819571,0 1.7072676714173887,-0.38262898138473106 1.7072676714173887,-1.2951324750502544 c0,-3.502863625104685 0.41204001502848175,-8.536433538425596 0.41204001502848175,-12.039392344868931 C27.115258866346977,17.57413500311272 26.143933305393947,16.92642599357961 24.995855998562455,16.92642599357961 z" id="svg_6" stroke="#cc0000" stroke-opacity="1" fill="#cc0000" fill-opacity="1"/>
	</g>
</g><g id="svg_7" class="" stroke="#cc0000" stroke-opacity="1" fill="#cc0000" fill-opacity="1">
	<g id="svg_8" stroke="#cc0000" stroke-opacity="1" fill="#cc0000" fill-opacity="1">
		<path d="M25.025457394883503,34.08771653403935 c-1.2951324750502544,0 -2.2666483986805868,1.0302428095791833 -2.2666483986805868,2.2666483986805868 c0,1.206899374118999 0.97142074229168,2.2666483986805868 2.2666483986805868,2.2666483986805868 c1.206899374118999,0 2.2372373650368362,-1.0597490245615875 2.2372373650368362,-2.2666483986805868 C27.26269475992035,35.117959343618544 26.232261587663857,34.08771653403935 25.025457394883503,34.08771653403935 z" id="svg_9" stroke="#cc0000" stroke-opacity="1" fill="#cc0000" fill-opacity="1"/>
	</g>
</g></g></g></svg>