<svg xmlns="http://www.w3.org/2000/svg" xmlns:xlink="http://www.w3.org/1999/xlink" version="1.1" style="" xml:space="preserve" width="50" height="50"><rect id="backgroundrect" width="100%" height="100%" x="0" y="0" fill="none" stroke="none"/>
















<g class="currentLayer" style=""><title>Layer 1</title><g id="svg_1" class="selected" fill-opacity="1" fill="#cc0000">
	<g id="svg_2" fill="#cc0000">
		<path d="M49.01665298944746,41.677747741039596 L27.303534332731527,5.668459667016876 c-0.5487484958116742,-0.9100699468146747 -1.5340212486403488,-1.4665513789774023 -2.5968166883883406,-1.4665513789774023 c-1.0627954397479922,0 -2.0480681925766677,0.5563847704583396 -2.5968166883883406,1.4665513789774023 L0.396975622647709,41.677747741039596 c-0.5646976770357229,0.9365552538170351 -0.5814201518948773,2.1047119513481385 -0.043594428679067355,3.0569264012760575 c0.5378257232158103,0.9523111116323079 1.5466839319152,1.541174214765074 2.6403144553630207,1.541174214765074 h43.426140651727444 c1.0936305234478205,0 2.102488732147211,-0.5889597648371551 2.6403144553630207,-1.541174214765074 C49.59797647963794,43.78236303068334 49.58135066648317,42.61430299485662 49.01665298944746,41.677747741039596 zM24.722956810680397,16.657928838908575 c1.2470326483118552,0 2.3021918134131814,0.7035038845371432 2.3021918134131814,1.950439871144611 c0,3.8048946698317607 -0.44764035302164235,9.27266064025331 -0.44764035302164235,13.077555310085073 c0,0.9912657785007423 -1.087154189253813,1.4068144456655096 -1.8545514603915396,1.4068144456655096 c-1.023067479244452,0 -1.8864498228396371,-0.4156453288691559 -1.8864498228396371,-1.4068144456655096 c0,-3.8048946698317607 -0.447543691317254,-9.27266064025331 -0.447543691317254,-13.077555310085073 C22.38896329652351,17.361432723445716 23.412030775767963,16.657928838908575 24.722956810680397,16.657928838908575 zM24.75495183483289,40.22318241340633 c-1.4068144456655096,0 -2.4620702724712245,-1.1510475758543959 -2.4620702724712245,-2.4619736107668357 c0,-1.3429210590649256 1.0551591651013266,-2.4619736107668357 2.4620702724712245,-2.4619736107668357 c1.3109260349124394,0 2.430075248318738,1.1190525517019112 2.430075248318738,2.4619736107668357 C27.185027083151624,39.07213483755193 26.065877869745332,40.22318241340633 24.75495183483289,40.22318241340633 z" id="svg_3" fill="#cc0000"/>
	</g>
</g><g id="svg_4">
</g><g id="svg_5">
</g><g id="svg_6">
</g><g id="svg_7">
</g><g id="svg_8">
</g><g id="svg_9">
</g><g id="svg_10">
</g><g id="svg_11">
</g><g id="svg_12">
</g><g id="svg_13">
</g><g id="svg_14">
</g><g id="svg_15">
</g><g id="svg_16">
</g><g id="svg_17">
</g><g id="svg_18">
</g></g></svg>