<?xml version="1.0" encoding="utf-8"?>
<!-- Generator: Adobe Illustrator 19.0.0, SVG Export Plug-In . SVG Version: 6.00 Build 0)  -->
<svg version="1.1" id="Layer_1" xmlns="http://www.w3.org/2000/svg" xmlns:xlink="http://www.w3.org/1999/xlink" x="0px" y="0px"
	 viewBox="-241 333 128 128" style="enable-background:new -241 333 128 128;" xml:space="preserve">
<style type="text/css">
	.st0{fill:none;stroke:#000000;stroke-width:2;stroke-linejoin:round;}
	.st1{fill:none;stroke:#000000;stroke-width:2;stroke-linecap:round;stroke-linejoin:round;}
</style>
<g id="Rocket">
	<path class="st0" d="M-134,354.2c-0.7,23.4-14.8,46.6-32,60.5c-1.2,0.9-1.9,2.3-1.9,3.8v2.5c0,3-0.7,5.9-2.1,8.5
		c-2,3.7-4.4,7.1-7.2,10.2c-1.3-3.1-4.9-14.2-4.9-14.2l-10.5,2.7c-1.7,0.4-3.4-0.1-4.6-1.3l-10.1-10c-1.2-1.2-1.7-2.9-1.3-4.6
		l2.7-10.4c0,0-11.1-3.4-14.2-4.7c3.1-2.8,6.6-5.3,10.3-7.3c2.6-1.4,5.5-2.2,8.4-2.1h2.6c1.5,0,2.9-0.7,3.8-1.9
		c7.3-8.8,16.3-16.2,26.4-21.8c7.3-4.1,15.3-7.1,23.5-8.8C-141.4,354.7-137.7,354.3-134,354.2L-134,354.2z"/>
	<path class="st0" d="M-212.9,418.5c0,0-7.6,12.2-4.7,18.8c6.7,2.9,19-4.7,19-4.7s-7.5-2-9.9-4.4S-212.9,418.5-212.9,418.5z"/>
	<circle class="st0" cx="-165.1" cy="385.3" r="7.2"/>
	<line class="st0" x1="-182.1" y1="425.6" x2="-166.6" y2="415.2"/>
	<line class="st0" x1="-205.8" y1="402" x2="-194.9" y2="386"/>
	<path class="st1" d="M-154.6,362.7c4.1-1.6,8.3-2.8,12.6-3.7"/>
	<path class="st1" d="M-158.5,364.4c0,0,0.1,0,0.1-0.1"/>
	<line class="st0" x1="-202.4" y1="397" x2="-175.9" y2="421.4"/>
	<line class="st0" x1="-208.4" y1="415" x2="-198.6" y2="400.5"/>
	<line class="st0" x1="-203.9" y1="419.4" x2="-192.3" y2="406.3"/>
	<line class="st0" x1="-199.4" y1="423.8" x2="-186" y2="412.1"/>
	<line class="st0" x1="-194.8" y1="428.3" x2="-179.7" y2="417.9"/>
</g>
<polygon class="st1" points="-123.1,334.6 -120.6,339.6 -115.1,340.4 -119.1,344.3 -118.1,349.8 -123.1,347.2 -128,349.8 
	-127.1,344.3 -131.1,340.4 -125.5,339.6 "/>
</svg>
