<?xml version="1.0" encoding="utf-8"?>
<!-- Generator: Adobe Illustrator 19.0.0, SVG Export Plug-In . SVG Version: 6.00 Build 0)  -->
<svg version="1.1" id="Capa_1" xmlns="http://www.w3.org/2000/svg" xmlns:xlink="http://www.w3.org/1999/xlink" x="0px" y="0px"
	 viewBox="-49 141 512 512" style="enable-background:new -49 141 512 512;" xml:space="preserve">
<g>
	<path d="M420.7,170.5c-95,0.1-188.1,40.1-255.4,109.7l-23.9,23.9L116,278.7l-75.1,21.2L-19,359.8l52.4,52.4l0,0l2.7,2.7l-24.6,50.9
		L27.7,482L-12,521.7l18.8,18.8l39.7-39.7L65.7,520l-84.2,84.2L0.3,623l84.2-84.2l19.2,19.2L64,597.7l18.8,18.8l39.7-39.7l16.2,16.2
		l50.9-24.6l55.1,55.1l59.8-59.8l21.3-75.1l-25.5-25.5l23.9-23.9c33.2-32,60.7-71.4,79.6-114.1c35.8-81,29.5-146,30.3-154.5
		L420.7,170.5z M54.7,323.6l53.5-15.1l14.4,14.4l-70.5,70.5l-33.6-33.6L54.7,323.6z M144.1,560.9L43.6,460.3L56,434.8l113.7,113.7
		L144.1,560.9z M296,496.3l-15.1,53.4l-36.2,36.2l-33.6-33.6l70.5-70.5L296,496.3z M305.7,420.1l-24.2,24.2l0,0l-89.2,89.2L71,412.2
		c8.9-8.9,80.6-80.6,89.2-89.2c2.8-2.8-9.5,9.5,24.2-24.2c59.1-61.2,139.7-97.7,222.8-101.4C403.5,280.6,367,361.1,305.7,420.1
		L305.7,420.1z"/>
	<path d="M306.2,383.8c23.6-23.6,23.6-62,0-85.6c-11.4-11.4-26.6-17.7-42.8-17.7c-33.4,0-60.5,26.9-60.5,60.5
		c0,16.2,6.3,31.4,17.7,42.8C244.1,407.2,282.5,407.6,306.2,383.8L306.2,383.8z M263.5,307.1c9.1,0,17.6,3.5,24,9.9
		c13.2,13.2,13.2,34.8,0,48.1c-6.4,6.4-14.9,9.9-24,9.9c-19,0-34-15.2-34-33.9C229.5,331.9,244.9,307.1,263.5,307.1z"/>
</g>
</svg>
