<svg xmlns="http://www.w3.org/2000/svg" viewBox="0 0 128 128"><defs><style>.cls-1,.cls-2{fill:none;stroke:#000;stroke-linejoin:round;stroke-width:2px;}.cls-2{stroke-linecap:round;}</style></defs><g id="Layer_2" data-name="Layer 2"><g id="Rocket"><path class="cls-1" d="M107,21.21c-.7,23.41-14.77,46.59-32,60.48a5,5,0,0,0-1.87,3.84v2.52A17,17,0,0,1,71,96.56a56.81,56.81,0,0,1-7.2,10.24c-1.3-3.14-4.85-14.22-4.85-14.22l-10.5,2.7A4.78,4.78,0,0,1,43.84,94L33.76,84a4.78,4.78,0,0,1-1.25-4.59L35.21,69S24.15,65.58,21,64.31A53,53,0,0,1,31.27,57a16.86,16.86,0,0,1,8.43-2.13h2.64A5,5,0,0,0,46.15,53,92.14,92.14,0,0,1,72.5,31.22,81.72,81.72,0,0,1,96,22.46a66.08,66.08,0,0,1,11-1.26Z"/><path class="cls-1" d="M28.14,85.51s-7.61,12.16-4.73,18.85c6.68,2.87,19-4.71,19-4.71s-7.49-2-9.88-4.37S28.14,85.51,28.14,85.51Z"/><circle class="cls-1" cx="75.94" cy="52.25" r="7.17"/><line class="cls-1" x1="58.9" y1="92.58" x2="74.43" y2="82.22"/><line class="cls-1" x1="35.21" y1="69.02" x2="46.15" y2="53.04"/><path class="cls-2" d="M86.41,29.7A75.83,75.83,0,0,1,99,26.05"/><path class="cls-2" d="M82.48,31.38a.91.91,0,0,0,.14-.07"/><line class="cls-1" x1="38.65" y1="64" x2="65.15" y2="88.42"/><line class="cls-1" x1="32.56" y1="82" x2="42.41" y2="67.54"/><line class="cls-1" x1="37.1" y1="86.42" x2="48.71" y2="73.32"/><line class="cls-1" x1="41.65" y1="90.84" x2="55.01" y2="79.1"/><line class="cls-1" x1="46.2" y1="95.26" x2="61.31" y2="84.88"/></g><polygon class="cls-2" points="50.43 12.67 52.91 17.68 58.43 18.48 54.43 22.38 55.38 27.89 50.43 25.29 45.49 27.89 46.43 22.38 42.43 18.48 47.96 17.68 50.43 12.67"/></g></svg>