<svg xmlns:dc="http://purl.org/dc/elements/1.1/" xmlns:cc="http://creativecommons.org/ns#" xmlns:rdf="http://www.w3.org/1999/02/22-rdf-syntax-ns#" xmlns:svg="http://www.w3.org/2000/svg" xmlns="http://www.w3.org/2000/svg" xmlns:sodipodi="http://sodipodi.sourceforge.net/DTD/sodipodi-0.dtd" xmlns:inkscape="http://www.inkscape.org/namespaces/inkscape" version="1.1" inkscape:version="0.48.3.1 r9886" width="150" height="150" sodipodi:docname="arrow_up_font_awesome.svg" style=""><rect id="backgroundrect" width="100%" height="100%" x="0" y="0" fill="none" stroke="none" class="" style=""/>
  
<g class="currentLayer" style=""><title>Layer 1</title><g id="g3027" class="selected">
    <path d="m148.41186862340822,78.80709979563767 q0,4.832065540532353 -3.5056161764646485,8.527174483292388 l-7.105978736076991,7.105978736076991 q-3.600362559612342,3.600362559612342 -8.621920866440082,3.600362559612342 q-5.116304689975433,0 -8.527174483292388,-3.600362559612342 L92.7957417157123,66.67956275273293 V133.38101648870895 q0,4.926811923680047 -3.552989368038495,8.006069375980076 Q85.6897629796353,144.46634331698908 80.66820467280756,144.46634331698908 H68.54066762990284 q-5.02155830682774,0 -8.574547674866235,-3.079257452300029 Q56.41313058699811,138.307828412389 56.41313058699811,133.38101648870895 V66.67956275273293 L28.557693941576304,94.44025301500706 q-3.4108697933169556,3.600362559612342 -8.527174483292388,3.600362559612342 q-5.116304689975433,0 -8.527174483292388,-3.600362559612342 l-7.105978736076991,-7.105978736076991 q-3.600362559612342,-3.600362559612342 -3.600362559612342,-8.527174483292388 q0,-5.02155830682774 3.600362559612342,-8.621920866440082 l61.67989542914828,-61.67989542914828 q3.3161234101692627,-3.5056161764646485 8.527174483292388,-3.5056161764646485 q5.116304689975433,0 8.621920866440082,3.5056161764646485 l61.67989542914828,61.67989542914828 q3.5056161764646485,3.695108942760036 3.5056161764646485,8.621920866440082 z" id="path3029" inkscape:connector-curvature="0" style="fill:#FFFFFF" stroke-width="0"/>
  </g></g></svg>