<svg xmlns="http://www.w3.org/2000/svg" xmlns:xlink="http://www.w3.org/1999/xlink" version="1.1" style="enable-background:new 0 0 492 492;" xml:space="preserve" width="150" height="150"><rect id="backgroundrect" width="100%" height="100%" x="0" y="0" fill="none" stroke="none"/>
















<g class="currentLayer" style=""><title>Layer 1</title><g id="svg_1" class="selected" transform="rotate(90 74.59001922607422,75.59481048583986) " fill="#ffffff" fill-opacity="1">
	<g id="svg_2" fill="#ffffff" fill-opacity="1">
		<path d="M140.75324065971517,63.9035894747947 l0.23272146554302145,0.05090782058753593 H41.22360304721727 l31.36164166385477,-31.43073084893786 c1.5357192543906621,-1.5345071634242924 2.3781224760177433,-3.613243170748669 2.3781224760177433,-5.795006910214488 c0,-2.181763739465819 -0.8424032216270806,-4.245954655193757 -2.3781224760177433,-5.78409809151716 L67.70536648046684,16.06235903217477 c-1.5345071634242924,-1.5345071634242924 -3.5793046236903114,-2.3829708398832223 -5.7598562721897615,-2.3829708398832223 c-2.181763739465819,0 -4.227773290698209,0.8424032216270806 -5.7622804541225,2.3769103850513735 L2.423359122750412,69.81132084488158 C0.88279150449425,71.35188846313773 0.0403882828671982,73.40395846920197 0.04644873769902347,75.58693429963415 c-0.006060454831849528,2.1950967400958876 0.8363427667952299,4.248378837126497 2.3769103850513735,5.786522273449899 l53.759870631404134,53.759870631404134 c1.5345071634242924,1.5332950724579226 3.5793046236903114,2.3769103850513735 5.7622804541225,2.3769103850513735 c2.1805516484994487,0 4.225349108765469,-0.8448274035598202 5.7598562721897615,-2.3769103850513735 l4.8798782306052155,-4.882302412537953 c1.5357192543906621,-1.5320829814915524 2.3781224760177433,-3.5780925327239426 2.3781224760177433,-5.7598562721897615 c0,-2.1805516484994487 -0.8424032216270806,-4.118685103724918 -2.3781224760177433,-5.651980176182841 L40.86967248503723,87.23270430451616 h99.99508054358395 c4.493221212333218,0 8.268884572575452,-3.8726306375518282 8.268884572575452,-8.363427667952305 v-6.905282235409316 C149.13363760119665,67.47319737075405 145.2464618720484,63.9035894747947 140.75324065971517,63.9035894747947 z" id="svg_3" fill="#ffffff" fill-opacity="1"/>
	</g>
</g><g id="svg_4">
</g><g id="svg_5">
</g><g id="svg_6">
</g><g id="svg_7">
</g><g id="svg_8">
</g><g id="svg_9">
</g><g id="svg_10">
</g><g id="svg_11">
</g><g id="svg_12">
</g><g id="svg_13">
</g><g id="svg_14">
</g><g id="svg_15">
</g><g id="svg_16">
</g><g id="svg_17">
</g><g id="svg_18">
</g></g></svg>