<svg height="681pt" viewBox="-60 -21 681 681.33464" width="681pt" xmlns="http://www.w3.org/2000/svg">
    <path d="m-2.492188.0820312v243.0703128c0 170.804687 107.148438 324.980468 272.96875 392.792968l7.074219 2.890626 7.066407-2.890626c165.820312-67.8125 272.96875-221.988281 272.96875-392.792968v-243.0703128zm522.742188 243.0703128c0 153.144531-95.007812 291.789062-242.699219 355.269531-147.699219-63.480469-242.707031-202.125-242.707031-355.269531v-205.730469h485.40625zm0 0"/>
    <path d="m269.058594 553.214844 8.484375 4.328125 8.484375-4.328125c121.445312-61.953125 196.882812-180.765625 196.882812-310.0625v-168.390625h-410.726562v168.390625c0 129.296875 75.4375 248.109375 196.875 310.0625zm-159.535156-441.113282h336.046874v131.050782c0 112.167968-64.132812 215.6875-168.019531 272.324218-103.894531-56.636718-168.027343-160.15625-168.027343-272.324218zm0 0"/>
    </svg>
