<?xml version="1.0" encoding="utf-8"?>
<!-- Generator: Adobe Illustrator 19.0.0, SVG Export Plug-In . SVG Version: 6.00 Build 0)  -->
<svg version="1.1" id="Layer_1" xmlns="http://www.w3.org/2000/svg" xmlns:xlink="http://www.w3.org/1999/xlink" x="0px" y="0px"
	 viewBox="-241 333 128 128" style="enable-background:new -241 333 128 128;" xml:space="preserve">
<style type="text/css">
	.st0{fill:none;stroke:#000000;stroke-width:2;stroke-linecap:round;stroke-linejoin:round;}
	.st1{fill:none;stroke:#000000;stroke-width:2;stroke-linejoin:round;}
</style>
<path class="st0" d="M-186,398.8l-16.6,8.4c-3.9,2-8.6,0.4-10.6-3.5c0,0,0,0,0,0l0,0c-2-3.9-0.4-8.6,3.5-10.6c0,0,0,0,0,0l25.7-12.9
	"/>
<path class="st0" d="M-143.4,381.8l-23.9,12"/>
<path class="st0" d="M-180.6,389.4l-2.6-5.3c-2-3.9-0.4-8.6,3.5-10.6c0,0,0,0,0,0l25.7-12.9"/>
<path class="st0" d="M-222,408.1l8.8-4.4"/>
<path class="st0" d="M-149.7,354.1l3.5-1.8l14.2,28.2l-3.5,1.8c-3.9,2-8.6,0.4-10.6-3.5c0,0,0,0,0,0l-7.1-14.1
	C-155.2,360.8-153.6,356-149.7,354.1C-149.7,354.1-149.7,354.1-149.7,354.1z"/>
<path class="st0" d="M-167.3,393.8c2.4,4.9,0.4,10.8-4.5,13.2c-4.9,2.4-10.8,0.4-13.2-4.5c-2.4-4.9-0.4-10.8,4.5-13.2
	c2.3-1.1,5-1.3,7.5-0.5C-170.5,389.7-168.5,391.5-167.3,393.8z"/>
<path class="st0" d="M-173.2,396.8c0.8,1.6,0.2,3.5-1.4,4.4c-1.6,0.8-3.5,0.2-4.4-1.4s-0.2-3.5,1.4-4.4c0.8-0.4,1.7-0.5,2.5-0.2
	C-174.3,395.5-173.6,396-173.2,396.8z"/>
<path class="st0" d="M-175.4,408.1v33.6"/>
<path class="st0" d="M-199.1,441.7l16.9-35.7"/>
<path class="st0" d="M-151.7,441.7l-17.3-36.5"/>
<path class="st0" d="M-167.5,371.9l10.2-5.1"/>
<path class="st0" d="M-171.2,373.8L-171.2,373.8"/>
<polygon class="st0" points="-122.9,335.9 -120.4,340.9 -114.9,341.7 -118.9,345.6 -117.9,351.1 -122.9,348.5 -127.8,351.1 
	-126.9,345.6 -130.9,341.7 -125.3,340.9 "/>
<line class="st1" x1="-146.1" y1="378.6" x2="-135.1" y2="374.4"/>
<line class="st1" x1="-148.5" y1="373.9" x2="-137.8" y2="368.9"/>
<line class="st1" x1="-150.9" y1="369.2" x2="-140.6" y2="363.4"/>
<line class="st1" x1="-153.3" y1="364.4" x2="-143.4" y2="357.8"/>
</svg>
