<?xml version="1.0" encoding="utf-8"?>
<!-- Generator: Adobe Illustrator 19.0.0, SVG Export Plug-In . SVG Version: 6.00 Build 0)  -->
<svg version="1.1" id="Layer_1" xmlns="http://www.w3.org/2000/svg" xmlns:xlink="http://www.w3.org/1999/xlink" x="0px" y="0px"
	 viewBox="-49 141 512 512" style="enable-background:new -49 141 512 512;" xml:space="preserve">
<path d="M433.1,211.7c-9.7-17-26.4-28.9-45.6-32.4l-5.1-21.1c-0.9-3.8-4.7-6.1-8.4-5.2l0,0l-39.2,9.5c-3.8,0.9-6.1,4.7-5.2,8.5
	l3.7,15.4l-260.1,63c-3.7,0.9-6,4.7-5.1,8.4l2.5,10.4l-47.2,11.4c-3.8,0.9-6.1,4.7-5.2,8.5l3.7,15.3l-48.7,11.8
	c-3.8,0.9-6.1,4.7-5.2,8.5l0,0l9,37.2c0.8,3.1,3.6,5.4,6.8,5.4c0.6,0,1.1-0.1,1.7-0.2l48.7-11.8l3.7,15.2c0.8,3.1,3.6,5.4,6.8,5.4
	c0.6,0,1.1-0.1,1.7-0.2l47.2-11.4l2.5,10.4c0.8,3.1,3.6,5.3,6.8,5.4c0.6,0,1.1-0.1,1.7-0.2l70-17c0.8,4,2.5,7.8,4.8,11.2L67.8,599.4
	c-4.6,9.4-0.7,20.8,8.7,25.4c2.6,1.3,5.4,1.9,8.3,1.9c7.2,0,13.8-4.1,17-10.6l84-170.6v162.3c0,10.5,8.5,19,19,19s19-8.5,19-19l0,0
	V445.5l83.9,170.7c3.2,6.5,9.8,10.6,17.1,10.6c2.9,0,5.8-0.7,8.4-2c9.4-4.6,13.3-16,8.7-25.4l0,0L230.4,372.8
	c5.2-7.5,6.8-17,4.3-25.8l129.9-31.5l3.7,15.4c0.9,3.8,4.7,6.1,8.5,5.2l39.2-9.5c3.8-0.9,6.1-4.7,5.2-8.4l0,0l-5.1-21.1
	C442.1,276.8,449.4,240.5,433.1,211.7L433.1,211.7z M-11,350.6l-5.7-23.6l41.9-10.1l5.7,23.6L-11,350.6z M49.8,359.2l-3.6-15.1
	c0-0.1,0-0.1,0-0.2s0-0.1-0.1-0.2l-8.9-36.8c0-0.1,0-0.1,0-0.1v-0.1l-3.7-15.1l40.4-9.8l16.4,67.7L49.8,359.2z M219,346
	c4.4,6.7,3.5,15.6-2.2,21.2l0,0c-6.6,6.6-17.4,6.6-24,0l0,0l0,0c-6.6-6.6-6.6-17.4,0-24s17.4-6.6,24,0
	C217.6,344.1,218.4,345,219,346L219,346z M89.3,610c-1.2,2.5-4.2,3.5-6.7,2.3c-1.2-0.6-2.1-1.6-2.5-2.9c-0.4-1.2-0.3-2.6,0.2-3.8
	l105.5-214.4v22.6L89.3,610z M204.8,612.8c-2.8,0-5-2.2-5-5V385.9c3.3,0.6,6.7,0.6,10,0v221.9C209.8,610.6,207.6,612.8,204.8,612.8
	L204.8,612.8z M329.5,609.4c-0.4,1.3-1.4,2.3-2.6,2.9c-2.5,1.1-5.4,0.1-6.6-2.3l-96.5-196.2v-22.6l105.4,214.5
	C329.8,606.8,329.9,608.2,329.5,609.4L329.5,609.4z M204.8,324.3c-13.9,0-26.2,9.4-29.9,22.8l-67,16.2l-22.1-91.6l0,0l0,0l-2.5-10.3
	l253.3-61.3L361.3,302l-133.7,32.4C221.8,328,213.5,324.3,204.8,324.3L204.8,324.3z M380.3,320.9l-31.7-130.8c0-0.1,0-0.1,0-0.2
	c0-0.1-0.1-0.1-0.1-0.2l-3.7-15.2l25.6-6.2l35.5,146.4L380.3,320.9z M391.2,194.7c27.6,8.7,42.9,38.1,34.2,65.7
	c-2.6,8.1-7,15.5-13.1,21.4L391.2,194.7z"/>
<path d="M256.9,229.6l-53.8,13c-3.8,0.8-6.2,4.5-5.4,8.3c0.8,3.8,4.5,6.2,8.3,5.4c0.1,0,0.3-0.1,0.4-0.1l53.8-13
	c3.8-0.8,6.2-4.5,5.4-8.3c-0.8-3.8-4.5-6.2-8.3-5.4C257.2,229.5,257.1,229.5,256.9,229.6L256.9,229.6z"/>
<path d="M309,224.2c-0.9-3.8-4.7-6.1-8.4-5.2l0,0l-16,3.9c-3.8,0.8-6.2,4.5-5.4,8.3c0.8,3.8,4.5,6.2,8.3,5.4c0.1,0,0.3-0.1,0.4-0.1
	l16-3.9C307.6,231.7,309.9,227.9,309,224.2L309,224.2z"/>
</svg>
