<svg xmlns="http://www.w3.org/2000/svg" viewBox="0 0 128 128"><defs><style>.cls-1,.cls-2{fill:none;stroke:#000;stroke-linejoin:round;stroke-width:2px;}.cls-1{stroke-linecap:round;}</style></defs><g id="Telescope"><path class="cls-1" d="M55,65.79,38.42,74.14a7.89,7.89,0,0,1-10.6-3.51h0A7.89,7.89,0,0,1,31.33,60L57,47.09"/><path class="cls-1" d="M97.6,48.82l-23.89,12"/><path class="cls-1" d="M60.45,56.44l-2.65-5.3a7.89,7.89,0,0,1,3.51-10.6L87,27.63"/><path class="cls-1" d="M19,75.06l8.82-4.43"/><path class="cls-1" d="M91.29,21.06l3.53-1.77L109,47.51l-3.53,1.77a7.89,7.89,0,0,1-10.6-3.51L87.78,31.66A7.89,7.89,0,0,1,91.29,21.06Z"/><path class="cls-1" d="M73.71,60.84a9.87,9.87,0,1,1-5.72-5A9.87,9.87,0,0,1,73.71,60.84Z"/><path class="cls-1" d="M67.78,63.81a3.24,3.24,0,1,1-1.88-1.62A3.23,3.23,0,0,1,67.78,63.81Z"/><path class="cls-1" d="M65.57,75.15v33.56"/><path class="cls-1" d="M41.88,108.71,58.78,73"/><path class="cls-1" d="M89.26,108.71,72,72.17"/><path class="cls-1" d="M73.54,38.92l10.2-5.13"/><path class="cls-1" d="M69.81,40.8l0,0"/><polygon class="cls-1" points="47.42 21.72 49.89 26.73 55.42 27.53 51.42 31.43 52.36 36.93 47.42 34.34 42.48 36.93 43.42 31.43 39.42 27.53 44.95 26.73 47.42 21.72"/><line class="cls-2" x1="94.87" y1="45.62" x2="105.95" y2="41.44"/><line class="cls-2" x1="92.48" y1="40.89" x2="103.17" y2="35.9"/><line class="cls-2" x1="90.08" y1="36.16" x2="100.38" y2="30.36"/><line class="cls-2" x1="87.68" y1="31.43" x2="97.6" y2="24.82"/></g></svg>