<svg xmlns="http://www.w3.org/2000/svg" xmlns:xlink="http://www.w3.org/1999/xlink" version="1.1" width="150" height="150" style="enable-background:new 0 0 512 512;" xml:space="preserve" fill="#FFFFFF"><rect id="backgroundrect" width="100%" height="100%" x="0" y="0" fill="none" stroke="none" class="" style=""/>

<g class="currentLayer" style=""><title>Layer 1</title><path d="M144.6886092046519,124.34680236008383 L94.63348303691559,74.2916761923475 l50.055126167736304,-50.055126167736304 c5.404113927757136,-5.404113927757136 5.404113927757136,-14.104354080954792 0,-19.50846800871193 c-5.404113927757136,-5.404113927757136 -14.104354080954792,-5.404113927757136 -19.50846800871193,0 L75.12501502820366,54.78320818363556 L25.06988886046736,4.728082015899256 c-5.404113927757136,-5.404113927757136 -14.104354080954792,-5.404113927757136 -19.50846800871193,0 c-5.404113927757136,5.404113927757136 -5.404113927757136,14.104354080954792 0,19.50846800871193 L55.616547019491726,74.2916761923475 L5.561420851755422,124.34680236008383 c-5.404113927757136,5.404113927757136 -5.404113927757136,14.104354080954792 0,19.50846800871193 c5.404113927757136,5.404113927757136 14.104354080954792,5.404113927757136 19.50846800871193,0 L75.12501502820366,93.80014420105942 l50.055126167736304,50.055126167736304 c5.404113927757136,5.404113927757136 14.104354080954792,5.404113927757136 19.50846800871193,0 C150.054396083276,138.4511564410386 150.054396083276,129.71258923870792 144.6886092046519,124.34680236008383 z" id="svg_1" class=""/></g></svg>